name analog
datacolumns 19
datarows 23
range 0.0 0.011
endheader
time	ground_force_vx	ground_force_vy	ground_force_vz	ground_force_px	ground_force_py	ground_force_pz	l_ground_force_vx	l_ground_force_vy	l_ground_force_vz	l_ground_force_px	l_ground_force_py	l_ground_force_pz	ground_torque_x	ground_torque_y	ground_torque_z	l_ground_torque_x	l_ground_torque_y	l_ground_torque_z
0.0	-0.0	-0.0	-0.0	-1.779302716255188	30.44635009765625	-307.142333984375	-2.7677667140960693	-35.53181457519531	-316.33135986328125	-0.0	-0.0	-0.0	-0.0	-0.0	-0.0	88870.265625	-4866.0927734375	-4757.23974609375
0.0005	-0.0	-0.0	-0.0	-1.8105682134628296	30.15241050720215	-308.9722595214844	-2.714331865310669	-35.359642028808594	-315.5468444824219	-0.0	-0.0	-0.0	-0.0	-0.0	-0.0	88949.34375	-5014.5810546875	-4826.88720703125
0.001	-0.0	-0.0	-0.0	-1.4956531524658203	30.283430099487305	-307.3703308105469	-2.4048240184783936	-35.38595962524414	-316.9259338378906	-0.0	-0.0	-0.0	-0.0	-0.0	-0.0	89083.859375	-5020.71875	-4777.79443359375
0.0015	-0.0	-0.0	-0.0	-1.0182476043701172	30.272829055786133	-306.6423034667969	-2.546326160430908	-35.3597526550293	-316.55767822265625	-0.0	-0.0	-0.0	-0.0	-0.0	-0.0	89431.828125	-5083.67431640625	-4814.7197265625
0.002	-0.0	-0.0	-0.0	-1.185768485069275	30.22631072998047	-306.707275390625	-2.797308921813965	-35.245418548583984	-317.3587951660156	-0.0	-0.0	-0.0	-0.0	-0.0	-0.0	89270.734375	-5210.39404296875	-4921.31591796875
0.0025	-0.0	-0.0	-0.0	-0.7913426756858826	30.310108184814453	-307.8475646972656	-3.4650232791900635	-35.42227554321289	-319.0221252441406	-0.0	-0.0	-0.0	-0.0	-0.0	-0.0	89728.28125	-5113.380859375	-5014.20556640625
0.003	-0.0	-0.0	-0.0	-0.8921051025390625	30.60339736938477	-309.0557556152344	-3.605768203735352	-35.68735122680664	-319.12457275390625	-0.0	-0.0	-0.0	-0.0	-0.0	-0.0	89979.78125	-5247.40966796875	-5101.54345703125
0.0035	-0.0	-0.0	-0.0	-1.5801215171813965	30.787830352783203	-310.4984436035156	-3.897645950317383	-35.4740104675293	-320.3974304199219	-0.0	-0.0	-0.0	-0.0	-0.0	-0.0	90115.8984375	-4979.3671875	-5204.87158203125
0.004	-0.0	-0.0	-0.0	-1.9626312255859373	30.508136749267575	-310.4203796386719	-4.117981910705566	-35.40547561645508	-319.69891357421875	-0.0	-0.0	-0.0	-0.0	-0.0	-0.0	89968.828125	-4721.45361328125	-5360.046875
0.0045000000000000005	-0.0	-0.0	-0.0	-2.395939826965332	30.53989601135254	-309.9910888671875	-4.175302028656006	-35.88413619995117	-319.55145263671875	-0.0	-0.0	-0.0	-0.0	-0.0	-0.0	90274.0078125	-4837.11572265625	-5389.8486328125
0.005	-0.0	-0.0	-0.0	-2.937356472015381	30.52665328979492	-311.3782958984375	-4.232622623443604	-35.770286560058594	-319.899169921875	-0.0	-0.0	-0.0	-0.0	-0.0	-0.0	90008.2734375	-4656.78857421875	-5419.4765625
0.0055	-0.0	-0.0	-0.0	-3.0398600101470947	30.196657180786133	-310.79833984375	-4.372249126434326	-35.57452774047852	-319.34918212890625	-0.0	-0.0	-0.0	-0.0	-0.0	-0.0	90105.546875	-4664.74609375	-5536.076171875
0.006	-0.0	-0.0	-0.0	-3.632468700408936	30.10779190063477	-310.59912109375	-4.676356315612793	-35.688316345214844	-320.0473022460937	-0.0	-0.0	-0.0	-0.0	-0.0	-0.0	89852.9765625	-4710.5390625	-5510.83740234375
0.006500000000000001	-0.0	-0.0	-0.0	-4.389250755310059	30.06901359558105	-309.6117553710937	-5.043314933776856	-35.53038024902344	-319.15057373046875	-0.0	-0.0	-0.0	-0.0	-0.0	-0.0	89782.609375	-4606.72119140625	-5648.77880859375
0.007	-0.0	-0.0	-0.0	-4.339180946350098	30.293785095214844	-310.3179626464844	-5.15193510055542	-35.56865310668945	-317.5303955078125	-0.0	-0.0	-0.0	-0.0	-0.0	-0.0	89636.6875	-4529.830078125	-5744.00732421875
0.0075	-0.0	-0.0	-0.0	-4.7133378982543945	30.457822799682617	-309.3562927246094	-4.904045581817627	-35.2403564453125	-316.358642578125	-0.0	-0.0	-0.0	-0.0	-0.0	-0.0	89646.3671875	-4300.14111328125	-5716.2783203125
0.008	-0.0	-0.0	-0.0	-4.638946533203125	30.32900619506836	-309.896484375	-4.765535354614258	-35.17677307128906	-317.2531433105469	-0.0	-0.0	-0.0	-0.0	-0.0	-0.0	89379.4140625	-4343.3916015625	-5799.18115234375
0.0085	-0.0	-0.0	-0.0	-5.312656402587891	30.384212493896484	-309.2273864746094	-4.815156936645508	-35.014381408691406	-314.96307373046875	-0.0	-0.0	-0.0	-0.0	-0.0	-0.0	88822.2265625	-4146.68603515625	-5783.71044921875
0.009000000000000001	-0.0	-0.0	-0.0	-5.19078540802002	30.1828670501709	-309.1606140136719	-4.911133766174316	-34.668758392333984	-314.9056091308594	-0.0	-0.0	-0.0	-0.0	-0.0	-0.0	88652.828125	-4412.28076171875	-5890.73486328125
0.0095	-0.0	-0.0	-0.0	-5.603872776031494	30.39346694946289	-309.8037109375	-5.137702941894531	-34.19547653198242	-314.4593811035156	-0.0	-0.0	-0.0	-0.0	-0.0	-0.0	88729.0078125	-4302.244140625	-5823.97607421875
0.01	-0.0	-0.0	-0.0	-5.514716625213623	30.571727752685547	-309.8349609375	-5.104005813598633	-34.020545959472656	-312.8700866699219	-0.0	-0.0	-0.0	-0.0	-0.0	-0.0	88364.21875	-4158.47265625	-5896.49462890625
0.0105	-0.0	-0.0	-0.0	-5.240285396575928	30.06106948852539	-310.3787841796875	-5.161633014678955	-34.02804946899414	-313.5692443847656	-0.0	-0.0	-0.0	-0.0	-0.0	-0.0	88436.9765625	-4150.72216796875	-5918.09912109375
0.011	-0.0	-0.0	-0.0	-5.603271484375	29.891223907470703	-308.8081970214844	-5.064521312713623	-33.7709846496582	-311.347900390625	-0.0	-0.0	-0.0	-0.0	-0.0	-0.0	88019.1640625	-4558.630859375	-5963.87109375
